<?xml version="1.0" encoding="UTF-8"?>
<svg fill="none" viewBox="0 0 32 32" xmlns="http://www.w3.org/2000/svg">
<path d="m10 4c-1.1046 0-2 0.89543-2 2v20c0 1.1046 0.89543 2 2 2h12c1.1046 0 2-0.8954 2-2v-20c0-1.1046-0.8954-2-2-2h-12zm3.3333 12c-0.7363 0-1.3333 0.597-1.3333 1.3333 0 0.7364 0.597 1.3334 1.3333 1.3334 0.7364 0 1.3334-0.597 1.3334-1.3334 0-0.7363-0.597-1.3333-1.3334-1.3333zm-1.3333 6.6502c0-0.7364 0.597-1.3333 1.3333-1.3333 0.7364 0 1.3334 0.5969 1.3334 1.3333s-0.597 1.3334-1.3334 1.3334c-0.7363 0-1.3333-0.597-1.3333-1.3334zm6.667-6.6502c-0.7364 0-1.3333 0.597-1.3333 1.3333 0 0.7364 0.5969 1.3334 1.3333 1.3334s1.3333-0.597 1.3333-1.3334c0-0.7363-0.5969-1.3333-1.3333-1.3333zm-1.3333 6.6502c0-0.7364 0.5969-1.3333 1.3333-1.3333s1.3333 0.5969 1.3333 1.3333-0.5969 1.3334-1.3333 1.3334-1.3333-0.597-1.3333-1.3334zm3.9993-15.983h-10.667v5.368h10.667v-5.368z" clip-rule="evenodd" fill="#879099" fill-rule="evenodd"/>
</svg>
